<?xml version="1.0" standalone="no"?>
 <!DOCTYPE svg PUBLIC "-//W3C//DTD SVG 1.1//EN" 
 "http://www.w3.org/Graphics/SVG/1.1/DTD/svg11.dtd"> 
<svg
  xmlns:svg="http://www.w3.org/2000/svg"
  xmlns="http://www.w3.org/2000/svg"
  xmlns:xlink="http://www.w3.org/1999/xlink"
  version="1.1"
  width="297.0022mm" height="210.0072mm" viewBox="0.0000 0.0000 297.0022 210.0072">
<title>SVG Image created as winder-F_Paste.svg date 2025/09/08 15:53:36 </title>
  <desc>Image generated by PCBNEW </desc>
<g style="fill:#000000; fill-opacity:1.0000;stroke:#000000; stroke-opacity:1.0000;
stroke-linecap:round; stroke-linejoin:round;"
 transform="translate(0 0) scale(1 1)">
<path style="fill:#000000; fill-opacity:1.0000; stroke:none;fill-rule:evenodd;"
d="M 102.8950,83.9250
102.8881,83.9594
102.8686,83.9886
102.8394,84.0081
102.8050,84.0150
101.4850,84.0150
101.4506,84.0081
101.4214,83.9886
101.4019,83.9594
101.3950,83.9250
101.3950,83.2050
101.4019,83.1706
101.4214,83.1414
101.4506,83.1219
101.4850,83.1150
102.8050,83.1150
102.8394,83.1219
102.8686,83.1414
102.8881,83.1706
102.8950,83.2050
Z" /> 
<path style="fill:#000000; fill-opacity:1.0000; stroke:none;fill-rule:evenodd;"
d="M 102.8950,80.6250
102.8881,80.6594
102.8686,80.6886
102.8394,80.7081
102.8050,80.7150
101.4850,80.7150
101.4506,80.7081
101.4214,80.6886
101.4019,80.6594
101.3950,80.6250
101.3950,79.9050
101.4019,79.8706
101.4214,79.8414
101.4506,79.8219
101.4850,79.8150
102.8050,79.8150
102.8394,79.8219
102.8686,79.8414
102.8881,79.8706
102.8950,79.9050
Z" /> 
<path style="fill:#000000; fill-opacity:1.0000; stroke:none;fill-rule:evenodd;"
d="M 97.9950,80.6250
97.9881,80.6594
97.9686,80.6886
97.9394,80.7081
97.9050,80.7150
96.5850,80.7150
96.5506,80.7081
96.5214,80.6886
96.5019,80.6594
96.4950,80.6250
96.4950,79.9050
96.5019,79.8706
96.5214,79.8414
96.5506,79.8219
96.5850,79.8150
97.9050,79.8150
97.9394,79.8219
97.9686,79.8414
97.9881,79.8706
97.9950,79.9050
Z" /> 
<path style="fill:#000000; fill-opacity:1.0000; stroke:none;fill-rule:evenodd;"
d="M 97.9950,83.9250
97.9881,83.9594
97.9686,83.9886
97.9394,84.0081
97.9050,84.0150
96.5850,84.0150
96.5506,84.0081
96.5214,83.9886
96.5019,83.9594
96.4950,83.9250
96.4950,83.2050
96.5019,83.1706
96.5214,83.1414
96.5506,83.1219
96.5850,83.1150
97.9050,83.1150
97.9394,83.1219
97.9686,83.1414
97.9881,83.1706
97.9950,83.2050
Z" /> 
<path style="fill:#000000; fill-opacity:1.0000; stroke:none;fill-rule:evenodd;"
d="M 80.0550,61.9550
80.0702,61.8785
80.1136,61.8136
80.1785,61.7702
80.2550,61.7550
80.6550,61.7550
80.7315,61.7702
80.7964,61.8136
80.8398,61.8785
80.8550,61.9550
80.8550,62.5050
80.8398,62.5815
80.7964,62.6464
80.7315,62.6898
80.6550,62.7050
80.2550,62.7050
80.1785,62.6898
80.1136,62.6464
80.0702,62.5815
80.0550,62.5050
Z" /> 
<path style="fill:#000000; fill-opacity:1.0000; stroke:none;fill-rule:evenodd;"
d="M 81.7050,61.9550
81.7202,61.8785
81.7636,61.8136
81.8285,61.7702
81.9050,61.7550
82.3050,61.7550
82.3815,61.7702
82.4464,61.8136
82.4898,61.8785
82.5050,61.9550
82.5050,62.5050
82.4898,62.5815
82.4464,62.6464
82.3815,62.6898
82.3050,62.7050
81.9050,62.7050
81.8285,62.6898
81.7636,62.6464
81.7202,62.5815
81.7050,62.5050
Z" /> 
<path style="fill:#000000; fill-opacity:1.0000; stroke:none;fill-rule:evenodd;"
d="M 104.1850,68.3300
104.2021,68.2439
104.2509,68.1709
104.3239,68.1221
104.4100,68.1050
104.8600,68.1050
104.9461,68.1221
105.0191,68.1709
105.0679,68.2439
105.0850,68.3300
105.0850,68.8300
105.0679,68.9161
105.0191,68.9891
104.9461,69.0379
104.8600,69.0550
104.4100,69.0550
104.3239,69.0379
104.2509,68.9891
104.2021,68.9161
104.1850,68.8300
Z" /> 
<path style="fill:#000000; fill-opacity:1.0000; stroke:none;fill-rule:evenodd;"
d="M 105.7350,68.3300
105.7521,68.2439
105.8009,68.1709
105.8739,68.1221
105.9600,68.1050
106.4100,68.1050
106.4961,68.1221
106.5691,68.1709
106.6179,68.2439
106.6350,68.3300
106.6350,68.8300
106.6179,68.9161
106.5691,68.9891
106.4961,69.0379
106.4100,69.0550
105.9600,69.0550
105.8739,69.0379
105.8009,68.9891
105.7521,68.9161
105.7350,68.8300
Z" /> 
<path style="fill:#000000; fill-opacity:1.0000; stroke:none;fill-rule:evenodd;"
d="M 79.8550,55.9200
80.5050,55.9200
80.5050,56.8200
79.8550,56.8200
Z" /> 
<path style="fill:#000000; fill-opacity:1.0000; stroke:none;fill-rule:evenodd;"
d="M 79.8550,60.0200
80.5050,60.0200
80.5050,60.9200
79.8550,60.9200
Z" /> 
<path style="fill:#000000; fill-opacity:1.0000; stroke:none;fill-rule:evenodd;"
d="M 81.9550,60.0200
82.6050,60.0200
82.6050,60.9200
81.9550,60.9200
Z" /> 
<path style="fill:#000000; fill-opacity:1.0000; stroke:none;fill-rule:evenodd;"
d="M 81.9550,55.9200
82.6050,55.9200
82.6050,56.8200
81.9550,56.8200
Z" /> 
<path style="fill:#000000; fill-opacity:1.0000; stroke:none;fill-rule:evenodd;"
d="M 92.6500,60.2100
92.6500,59.5100
93.3500,59.5100
93.3500,60.2100
Z" /> 
<path style="fill:#000000; fill-opacity:1.0000; stroke:none;fill-rule:evenodd;"
d="M 92.6500,61.3100
92.6500,60.6100
93.3500,60.6100
93.3500,61.3100
Z" /> 
<path style="fill:#000000; fill-opacity:1.0000; stroke:none;fill-rule:evenodd;"
d="M 92.6500,62.4100
92.6500,61.7100
93.3500,61.7100
93.3500,62.4100
Z" /> 
<path style="fill:#000000; fill-opacity:1.0000; stroke:none;fill-rule:evenodd;"
d="M 93.7500,60.2100
93.7500,59.5100
94.4500,59.5100
94.4500,60.2100
Z" /> 
<path style="fill:#000000; fill-opacity:1.0000; stroke:none;fill-rule:evenodd;"
d="M 93.7500,61.3100
93.7500,60.6100
94.4500,60.6100
94.4500,61.3100
Z" /> 
<path style="fill:#000000; fill-opacity:1.0000; stroke:none;fill-rule:evenodd;"
d="M 93.7500,62.4100
93.7500,61.7100
94.4500,61.7100
94.4500,62.4100
Z" /> 
<path style="fill:#000000; fill-opacity:1.0000; stroke:none;fill-rule:evenodd;"
d="M 94.8500,60.2100
94.8500,59.5100
95.5500,59.5100
95.5500,60.2100
Z" /> 
<path style="fill:#000000; fill-opacity:1.0000; stroke:none;fill-rule:evenodd;"
d="M 94.8500,61.3100
94.8500,60.6100
95.5500,60.6100
95.5500,61.3100
Z" /> 
<path style="fill:#000000; fill-opacity:1.0000; stroke:none;fill-rule:evenodd;"
d="M 94.8500,62.4100
94.8500,61.7100
95.5500,61.7100
95.5500,62.4100
Z" /> 
<path style="fill:#000000; fill-opacity:1.0000; stroke:none;fill-rule:evenodd;"
d="M 83.6400,55.2100
83.6400,54.3100
85.1400,54.3100
85.1400,55.2100
Z" /> 
<path style="fill:#000000; fill-opacity:1.0000; stroke:none;fill-rule:evenodd;"
d="M 83.6400,56.7100
83.6400,55.8100
85.1400,55.8100
85.1400,56.7100
Z" /> 
<path style="fill:#000000; fill-opacity:1.0000; stroke:none;fill-rule:evenodd;"
d="M 83.6400,58.2100
83.6400,57.3100
85.1400,57.3100
85.1400,58.2100
Z" /> 
<path style="fill:#000000; fill-opacity:1.0000; stroke:none;fill-rule:evenodd;"
d="M 83.6400,59.7100
83.6400,58.8100
85.1400,58.8100
85.1400,59.7100
Z" /> 
<path style="fill:#000000; fill-opacity:1.0000; stroke:none;fill-rule:evenodd;"
d="M 83.6400,61.2100
83.6400,60.3100
85.1400,60.3100
85.1400,61.2100
Z" /> 
<path style="fill:#000000; fill-opacity:1.0000; stroke:none;fill-rule:evenodd;"
d="M 83.6400,62.7100
83.6400,61.8100
85.1400,61.8100
85.1400,62.7100
Z" /> 
<path style="fill:#000000; fill-opacity:1.0000; stroke:none;fill-rule:evenodd;"
d="M 83.6400,64.2100
83.6400,63.3100
85.1400,63.3100
85.1400,64.2100
Z" /> 
<path style="fill:#000000; fill-opacity:1.0000; stroke:none;fill-rule:evenodd;"
d="M 83.6400,65.7100
83.6400,64.8100
85.1400,64.8100
85.1400,65.7100
Z" /> 
<path style="fill:#000000; fill-opacity:1.0000; stroke:none;fill-rule:evenodd;"
d="M 83.6400,67.2100
83.6400,66.3100
85.1400,66.3100
85.1400,67.2100
Z" /> 
<path style="fill:#000000; fill-opacity:1.0000; stroke:none;fill-rule:evenodd;"
d="M 101.1400,67.2100
101.1400,66.3100
102.6400,66.3100
102.6400,67.2100
Z" /> 
<path style="fill:#000000; fill-opacity:1.0000; stroke:none;fill-rule:evenodd;"
d="M 101.1400,65.7100
101.1400,64.8100
102.6400,64.8100
102.6400,65.7100
Z" /> 
<path style="fill:#000000; fill-opacity:1.0000; stroke:none;fill-rule:evenodd;"
d="M 101.1400,64.2100
101.1400,63.3100
102.6400,63.3100
102.6400,64.2100
Z" /> 
<path style="fill:#000000; fill-opacity:1.0000; stroke:none;fill-rule:evenodd;"
d="M 101.1400,62.7100
101.1400,61.8100
102.6400,61.8100
102.6400,62.7100
Z" /> 
<path style="fill:#000000; fill-opacity:1.0000; stroke:none;fill-rule:evenodd;"
d="M 101.1400,61.2100
101.1400,60.3100
102.6400,60.3100
102.6400,61.2100
Z" /> 
<path style="fill:#000000; fill-opacity:1.0000; stroke:none;fill-rule:evenodd;"
d="M 101.1400,59.7100
101.1400,58.8100
102.6400,58.8100
102.6400,59.7100
Z" /> 
<path style="fill:#000000; fill-opacity:1.0000; stroke:none;fill-rule:evenodd;"
d="M 101.1400,58.2100
101.1400,57.3100
102.6400,57.3100
102.6400,58.2100
Z" /> 
<path style="fill:#000000; fill-opacity:1.0000; stroke:none;fill-rule:evenodd;"
d="M 101.1400,56.7100
101.1400,55.8100
102.6400,55.8100
102.6400,56.7100
Z" /> 
<path style="fill:#000000; fill-opacity:1.0000; stroke:none;fill-rule:evenodd;"
d="M 101.1400,55.2100
101.1400,54.3100
102.6400,54.3100
102.6400,55.2100
Z" /> 
<path style="fill:#000000; fill-opacity:1.0000; stroke:none;fill-rule:evenodd;"
d="M 79.8550,63.5400
80.5050,63.5400
80.5050,64.4400
79.8550,64.4400
Z" /> 
<path style="fill:#000000; fill-opacity:1.0000; stroke:none;fill-rule:evenodd;"
d="M 79.8550,67.6400
80.5050,67.6400
80.5050,68.5400
79.8550,68.5400
Z" /> 
<path style="fill:#000000; fill-opacity:1.0000; stroke:none;fill-rule:evenodd;"
d="M 81.9550,67.6400
82.6050,67.6400
82.6050,68.5400
81.9550,68.5400
Z" /> 
<path style="fill:#000000; fill-opacity:1.0000; stroke:none;fill-rule:evenodd;"
d="M 81.9550,63.5400
82.6050,63.5400
82.6050,64.4400
81.9550,64.4400
Z" /> 
<path style="fill:#000000; fill-opacity:1.0000; stroke:none;fill-rule:evenodd;"
d="M 92.3250,78.1500
92.4111,78.1671
92.4841,78.2159
92.5329,78.2889
92.5500,78.3750
92.5500,78.8250
92.5329,78.9111
92.4841,78.9841
92.4111,79.0329
92.3250,79.0500
91.8250,79.0500
91.7389,79.0329
91.6659,78.9841
91.6171,78.9111
91.6000,78.8250
91.6000,78.3750
91.6171,78.2889
91.6659,78.2159
91.7389,78.1671
91.8250,78.1500
Z" /> 
<path style="fill:#000000; fill-opacity:1.0000; stroke:none;fill-rule:evenodd;"
d="M 92.3250,79.7000
92.4111,79.7171
92.4841,79.7659
92.5329,79.8389
92.5500,79.9250
92.5500,80.3750
92.5329,80.4611
92.4841,80.5341
92.4111,80.5829
92.3250,80.6000
91.8250,80.6000
91.7389,80.5829
91.6659,80.5341
91.6171,80.4611
91.6000,80.3750
91.6000,79.9250
91.6171,79.8389
91.6659,79.7659
91.7389,79.7171
91.8250,79.7000
Z" /> 
<path style="fill:#000000; fill-opacity:1.0000; stroke:none;fill-rule:evenodd;"
d="M 107.6750,74.8850
107.5985,74.8698
107.5336,74.8264
107.4902,74.7615
107.4750,74.6850
107.4750,74.2850
107.4902,74.2085
107.5336,74.1436
107.5985,74.1002
107.6750,74.0850
108.2250,74.0850
108.3015,74.1002
108.3664,74.1436
108.4098,74.2085
108.4250,74.2850
108.4250,74.6850
108.4098,74.7615
108.3664,74.8264
108.3015,74.8698
108.2250,74.8850
Z" /> 
<path style="fill:#000000; fill-opacity:1.0000; stroke:none;fill-rule:evenodd;"
d="M 107.6750,73.2350
107.5985,73.2198
107.5336,73.1764
107.4902,73.1115
107.4750,73.0350
107.4750,72.6350
107.4902,72.5585
107.5336,72.4936
107.5985,72.4502
107.6750,72.4350
108.2250,72.4350
108.3015,72.4502
108.3664,72.4936
108.4098,72.5585
108.4250,72.6350
108.4250,73.0350
108.4098,73.1115
108.3664,73.1764
108.3015,73.2198
108.2250,73.2350
Z" /> 
<path style="fill:#000000; fill-opacity:1.0000; stroke:none;fill-rule:evenodd;"
d="M 91.8250,84.4100
91.7389,84.3929
91.6659,84.3441
91.6171,84.2711
91.6000,84.1850
91.6000,83.7350
91.6171,83.6489
91.6659,83.5759
91.7389,83.5271
91.8250,83.5100
92.3250,83.5100
92.4111,83.5271
92.4841,83.5759
92.5329,83.6489
92.5500,83.7350
92.5500,84.1850
92.5329,84.2711
92.4841,84.3441
92.4111,84.3929
92.3250,84.4100
Z" /> 
<path style="fill:#000000; fill-opacity:1.0000; stroke:none;fill-rule:evenodd;"
d="M 91.8250,82.8600
91.7389,82.8429
91.6659,82.7941
91.6171,82.7211
91.6000,82.6350
91.6000,82.1850
91.6171,82.0989
91.6659,82.0259
91.7389,81.9771
91.8250,81.9600
92.3250,81.9600
92.4111,81.9771
92.4841,82.0259
92.5329,82.0989
92.5500,82.1850
92.5500,82.6350
92.5329,82.7211
92.4841,82.7941
92.4111,82.8429
92.3250,82.8600
Z" /> 
<path style="fill:#000000; fill-opacity:1.0000; stroke:none;fill-rule:evenodd;"
d="M 82.5050,55.1136
82.4898,55.1901
82.4464,55.2550
82.3815,55.2984
82.3050,55.3136
81.9050,55.3136
81.8285,55.2984
81.7636,55.2550
81.7202,55.1901
81.7050,55.1136
81.7050,54.5636
81.7202,54.4871
81.7636,54.4222
81.8285,54.3788
81.9050,54.3636
82.3050,54.3636
82.3815,54.3788
82.4464,54.4222
82.4898,54.4871
82.5050,54.5636
Z" /> 
<path style="fill:#000000; fill-opacity:1.0000; stroke:none;fill-rule:evenodd;"
d="M 80.8550,55.1136
80.8398,55.1901
80.7964,55.2550
80.7315,55.2984
80.6550,55.3136
80.2550,55.3136
80.1785,55.2984
80.1136,55.2550
80.0702,55.1901
80.0550,55.1136
80.0550,54.5636
80.0702,54.4871
80.1136,54.4222
80.1785,54.3788
80.2550,54.3636
80.6550,54.3636
80.7315,54.3788
80.7964,54.4222
80.8398,54.4871
80.8550,54.5636
Z" /> 
<path style="fill:#000000; fill-opacity:1.0000; stroke:none;fill-rule:evenodd;"
d="M 78.4650,70.2500
78.3885,70.2348
78.3236,70.1914
78.2802,70.1265
78.2650,70.0500
78.2650,69.6500
78.2802,69.5735
78.3236,69.5086
78.3885,69.4652
78.4650,69.4500
79.0150,69.4500
79.0915,69.4652
79.1564,69.5086
79.1998,69.5735
79.2150,69.6500
79.2150,70.0500
79.1998,70.1265
79.1564,70.1914
79.0915,70.2348
79.0150,70.2500
Z" /> 
<path style="fill:#000000; fill-opacity:1.0000; stroke:none;fill-rule:evenodd;"
d="M 78.4650,68.6000
78.3885,68.5848
78.3236,68.5414
78.2802,68.4765
78.2650,68.4000
78.2650,68.0000
78.2802,67.9235
78.3236,67.8586
78.3885,67.8152
78.4650,67.8000
79.0150,67.8000
79.0915,67.8152
79.1564,67.8586
79.1998,67.9235
79.2150,68.0000
79.2150,68.4000
79.1998,68.4765
79.1564,68.5414
79.0915,68.5848
79.0150,68.6000
Z" /> 
<path style="fill:#000000; fill-opacity:1.0000; stroke:none;fill-rule:evenodd;"
d="M 86.6150,84.4390
86.5960,84.5347
86.5418,84.6158
86.4607,84.6700
86.3650,84.6890
83.8150,84.6890
83.7193,84.6700
83.6382,84.6158
83.5840,84.5347
83.5650,84.4390
83.5650,82.1890
83.5840,82.0933
83.6382,82.0122
83.7193,81.9580
83.8150,81.9390
86.3650,81.9390
86.4607,81.9580
86.5418,82.0122
86.5960,82.0933
86.6150,82.1890
Z" /> 
<path style="fill:#000000; fill-opacity:1.0000; stroke:none;fill-rule:evenodd;"
d="M 86.6150,81.3890
86.5960,81.4847
86.5418,81.5658
86.4607,81.6200
86.3650,81.6390
83.8150,81.6390
83.7193,81.6200
83.6382,81.5658
83.5840,81.4847
83.5650,81.3890
83.5650,79.1390
83.5840,79.0433
83.6382,78.9622
83.7193,78.9080
83.8150,78.8890
86.3650,78.8890
86.4607,78.9080
86.5418,78.9622
86.5960,79.0433
86.6150,79.1390
Z" /> 
<path style="fill:#000000; fill-opacity:1.0000; stroke:none;fill-rule:evenodd;"
d="M 83.2650,84.4390
83.2460,84.5347
83.1918,84.6158
83.1107,84.6700
83.0150,84.6890
80.4650,84.6890
80.3693,84.6700
80.2882,84.6158
80.2340,84.5347
80.2150,84.4390
80.2150,82.1890
80.2340,82.0933
80.2882,82.0122
80.3693,81.9580
80.4650,81.9390
83.0150,81.9390
83.1107,81.9580
83.1918,82.0122
83.2460,82.0933
83.2650,82.1890
Z" /> 
<path style="fill:#000000; fill-opacity:1.0000; stroke:none;fill-rule:evenodd;"
d="M 83.2650,81.3890
83.2460,81.4847
83.1918,81.5658
83.1107,81.6200
83.0150,81.6390
80.4650,81.6390
80.3693,81.6200
80.2882,81.5658
80.2340,81.4847
80.2150,81.3890
80.2150,79.1390
80.2340,79.0433
80.2882,78.9622
80.3693,78.9080
80.4650,78.8890
83.0150,78.8890
83.1107,78.9080
83.1918,78.9622
83.2460,79.0433
83.2650,79.1390
Z" /> 
<path style="fill:#000000; fill-opacity:1.0000; stroke:none;fill-rule:evenodd;"
d="M 90.8150,84.4190
90.7960,84.5147
90.7418,84.5958
90.6607,84.6500
90.5650,84.6690
88.8650,84.6690
88.7693,84.6500
88.6882,84.5958
88.6340,84.5147
88.6150,84.4190
88.6150,83.7190
88.6340,83.6233
88.6882,83.5422
88.7693,83.4880
88.8650,83.4690
90.5650,83.4690
90.6607,83.4880
90.7418,83.5422
90.7960,83.6233
90.8150,83.7190
Z" /> 
<path style="fill:#000000; fill-opacity:1.0000; stroke:none;fill-rule:evenodd;"
d="M 90.8150,79.8590
90.7960,79.9547
90.7418,80.0358
90.6607,80.0900
90.5650,80.1090
88.8650,80.1090
88.7693,80.0900
88.6882,80.0358
88.6340,79.9547
88.6150,79.8590
88.6150,79.1590
88.6340,79.0633
88.6882,78.9822
88.7693,78.9280
88.8650,78.9090
90.5650,78.9090
90.6607,78.9280
90.7418,78.9822
90.7960,79.0633
90.8150,79.1590
Z" /> 
<path style="fill:#000000; fill-opacity:1.0000; stroke:none;fill-rule:evenodd;"
d="M 106.8500,64.2835
106.8677,64.1945
106.9181,64.1191
106.9935,64.0687
107.0825,64.0510
107.5475,64.0510
107.6365,64.0687
107.7119,64.1191
107.7623,64.1945
107.7800,64.2835
107.7800,64.7485
107.7623,64.8375
107.7119,64.9129
107.6365,64.9633
107.5475,64.9810
107.0825,64.9810
106.9935,64.9633
106.9181,64.9129
106.8677,64.8375
106.8500,64.7485
Z" /> 
<path style="fill:#000000; fill-opacity:1.0000; stroke:none;fill-rule:evenodd;"
d="M 106.8500,65.4335
106.8677,65.3445
106.9181,65.2691
106.9935,65.2187
107.0825,65.2010
107.5475,65.2010
107.6365,65.2187
107.7119,65.2691
107.7623,65.3445
107.7800,65.4335
107.7800,65.8985
107.7623,65.9875
107.7119,66.0629
107.6365,66.1133
107.5475,66.1310
107.0825,66.1310
106.9935,66.1133
106.9181,66.0629
106.8677,65.9875
106.8500,65.8985
Z" /> 
<path style="fill:#000000; fill-opacity:1.0000; stroke:none;fill-rule:evenodd;"
d="M 108.0000,64.2835
108.0177,64.1945
108.0681,64.1191
108.1435,64.0687
108.2325,64.0510
108.6975,64.0510
108.7865,64.0687
108.8619,64.1191
108.9123,64.1945
108.9300,64.2835
108.9300,64.7485
108.9123,64.8375
108.8619,64.9129
108.7865,64.9633
108.6975,64.9810
108.2325,64.9810
108.1435,64.9633
108.0681,64.9129
108.0177,64.8375
108.0000,64.7485
Z" /> 
<path style="fill:#000000; fill-opacity:1.0000; stroke:none;fill-rule:evenodd;"
d="M 108.0000,65.4335
108.0177,65.3445
108.0681,65.2691
108.1435,65.2187
108.2325,65.2010
108.6975,65.2010
108.7865,65.2187
108.8619,65.2691
108.9123,65.3445
108.9300,65.4335
108.9300,65.8985
108.9123,65.9875
108.8619,66.0629
108.7865,66.1133
108.6975,66.1310
108.2325,66.1310
108.1435,66.1133
108.0681,66.0629
108.0177,65.9875
108.0000,65.8985
Z" /> 
<path style="fill:#000000; fill-opacity:1.0000; stroke:none;fill-rule:evenodd;"
d="M 104.4400,63.0360
104.4514,62.9786
104.4839,62.9299
104.5326,62.8974
104.5900,62.8860
106.2400,62.8860
106.2974,62.8974
106.3461,62.9299
106.3786,62.9786
106.3900,63.0360
106.3900,63.3360
106.3786,63.3934
106.3461,63.4421
106.2974,63.4746
106.2400,63.4860
104.5900,63.4860
104.5326,63.4746
104.4839,63.4421
104.4514,63.3934
104.4400,63.3360
Z" /> 
<path style="fill:#000000; fill-opacity:1.0000; stroke:none;fill-rule:evenodd;"
d="M 104.4400,64.3060
104.4514,64.2486
104.4839,64.1999
104.5326,64.1674
104.5900,64.1560
106.2400,64.1560
106.2974,64.1674
106.3461,64.1999
106.3786,64.2486
106.3900,64.3060
106.3900,64.6060
106.3786,64.6634
106.3461,64.7121
106.2974,64.7446
106.2400,64.7560
104.5900,64.7560
104.5326,64.7446
104.4839,64.7121
104.4514,64.6634
104.4400,64.6060
Z" /> 
<path style="fill:#000000; fill-opacity:1.0000; stroke:none;fill-rule:evenodd;"
d="M 104.4400,65.5760
104.4514,65.5186
104.4839,65.4699
104.5326,65.4374
104.5900,65.4260
106.2400,65.4260
106.2974,65.4374
106.3461,65.4699
106.3786,65.5186
106.3900,65.5760
106.3900,65.8760
106.3786,65.9334
106.3461,65.9821
106.2974,66.0146
106.2400,66.0260
104.5900,66.0260
104.5326,66.0146
104.4839,65.9821
104.4514,65.9334
104.4400,65.8760
Z" /> 
<path style="fill:#000000; fill-opacity:1.0000; stroke:none;fill-rule:evenodd;"
d="M 104.4400,66.8460
104.4514,66.7886
104.4839,66.7399
104.5326,66.7074
104.5900,66.6960
106.2400,66.6960
106.2974,66.7074
106.3461,66.7399
106.3786,66.7886
106.3900,66.8460
106.3900,67.1460
106.3786,67.2034
106.3461,67.2521
106.2974,67.2846
106.2400,67.2960
104.5900,67.2960
104.5326,67.2846
104.4839,67.2521
104.4514,67.2034
104.4400,67.1460
Z" /> 
<path style="fill:#000000; fill-opacity:1.0000; stroke:none;fill-rule:evenodd;"
d="M 109.3900,66.8460
109.4014,66.7886
109.4339,66.7399
109.4826,66.7074
109.5400,66.6960
111.1900,66.6960
111.2474,66.7074
111.2961,66.7399
111.3286,66.7886
111.3400,66.8460
111.3400,67.1460
111.3286,67.2034
111.2961,67.2521
111.2474,67.2846
111.1900,67.2960
109.5400,67.2960
109.4826,67.2846
109.4339,67.2521
109.4014,67.2034
109.3900,67.1460
Z" /> 
<path style="fill:#000000; fill-opacity:1.0000; stroke:none;fill-rule:evenodd;"
d="M 109.3900,65.5760
109.4014,65.5186
109.4339,65.4699
109.4826,65.4374
109.5400,65.4260
111.1900,65.4260
111.2474,65.4374
111.2961,65.4699
111.3286,65.5186
111.3400,65.5760
111.3400,65.8760
111.3286,65.9334
111.2961,65.9821
111.2474,66.0146
111.1900,66.0260
109.5400,66.0260
109.4826,66.0146
109.4339,65.9821
109.4014,65.9334
109.3900,65.8760
Z" /> 
<path style="fill:#000000; fill-opacity:1.0000; stroke:none;fill-rule:evenodd;"
d="M 109.3900,64.3060
109.4014,64.2486
109.4339,64.1999
109.4826,64.1674
109.5400,64.1560
111.1900,64.1560
111.2474,64.1674
111.2961,64.1999
111.3286,64.2486
111.3400,64.3060
111.3400,64.6060
111.3286,64.6634
111.2961,64.7121
111.2474,64.7446
111.1900,64.7560
109.5400,64.7560
109.4826,64.7446
109.4339,64.7121
109.4014,64.6634
109.3900,64.6060
Z" /> 
<path style="fill:#000000; fill-opacity:1.0000; stroke:none;fill-rule:evenodd;"
d="M 109.3900,63.0360
109.4014,62.9786
109.4339,62.9299
109.4826,62.8974
109.5400,62.8860
111.1900,62.8860
111.2474,62.8974
111.2961,62.9299
111.3286,62.9786
111.3400,63.0360
111.3400,63.3360
111.3286,63.3934
111.2961,63.4421
111.2474,63.4746
111.1900,63.4860
109.5400,63.4860
109.4826,63.4746
109.4339,63.4421
109.4014,63.3934
109.3900,63.3360
Z" /> 
<path style="fill:#000000; fill-opacity:1.0000; stroke:none;fill-rule:evenodd;"
d="M 110.7400,68.6250
110.8261,68.6421
110.8991,68.6909
110.9479,68.7639
110.9650,68.8500
110.9650,69.3000
110.9479,69.3861
110.8991,69.4591
110.8261,69.5079
110.7400,69.5250
110.2400,69.5250
110.1539,69.5079
110.0809,69.4591
110.0321,69.3861
110.0150,69.3000
110.0150,68.8500
110.0321,68.7639
110.0809,68.6909
110.1539,68.6421
110.2400,68.6250
Z" /> 
<path style="fill:#000000; fill-opacity:1.0000; stroke:none;fill-rule:evenodd;"
d="M 110.7400,70.1750
110.8261,70.1921
110.8991,70.2409
110.9479,70.3139
110.9650,70.4000
110.9650,70.8500
110.9479,70.9361
110.8991,71.0091
110.8261,71.0579
110.7400,71.0750
110.2400,71.0750
110.1539,71.0579
110.0809,71.0091
110.0321,70.9361
110.0150,70.8500
110.0150,70.4000
110.0321,70.3139
110.0809,70.2409
110.1539,70.1921
110.2400,70.1750
Z" /> 
<path style="fill:#000000; fill-opacity:1.0000; stroke:none;fill-rule:evenodd;"
d="M 115.0900,63.7350
115.1857,63.7540
115.2668,63.8082
115.3210,63.8893
115.3400,63.9850
115.3400,64.7100
115.3210,64.8057
115.2668,64.8868
115.1857,64.9410
115.0900,64.9600
112.2400,64.9600
112.1443,64.9410
112.0632,64.8868
112.0090,64.8057
111.9900,64.7100
111.9900,63.9850
112.0090,63.8893
112.0632,63.8082
112.1443,63.7540
112.2400,63.7350
Z" /> 
<path style="fill:#000000; fill-opacity:1.0000; stroke:none;fill-rule:evenodd;"
d="M 115.0900,69.6600
115.1857,69.6790
115.2668,69.7332
115.3210,69.8143
115.3400,69.9100
115.3400,70.6350
115.3210,70.7307
115.2668,70.8118
115.1857,70.8660
115.0900,70.8850
112.2400,70.8850
112.1443,70.8660
112.0632,70.8118
112.0090,70.7307
111.9900,70.6350
111.9900,69.9100
112.0090,69.8143
112.0632,69.7332
112.1443,69.6790
112.2400,69.6600
Z" /> 
<path style="fill:#000000; fill-opacity:1.0000; stroke:none;fill-rule:evenodd;"
d="M 107.6750,71.7100
107.5985,71.6948
107.5336,71.6514
107.4902,71.5865
107.4750,71.5100
107.4750,71.1100
107.4902,71.0335
107.5336,70.9686
107.5985,70.9252
107.6750,70.9100
108.2250,70.9100
108.3015,70.9252
108.3664,70.9686
108.4098,71.0335
108.4250,71.1100
108.4250,71.5100
108.4098,71.5865
108.3664,71.6514
108.3015,71.6948
108.2250,71.7100
Z" /> 
<path style="fill:#000000; fill-opacity:1.0000; stroke:none;fill-rule:evenodd;"
d="M 107.6750,70.0600
107.5985,70.0448
107.5336,70.0014
107.4902,69.9365
107.4750,69.8600
107.4750,69.4600
107.4902,69.3835
107.5336,69.3186
107.5985,69.2752
107.6750,69.2600
108.2250,69.2600
108.3015,69.2752
108.3664,69.3186
108.4098,69.3835
108.4250,69.4600
108.4250,69.8600
108.4098,69.9365
108.3664,70.0014
108.3015,70.0448
108.2250,70.0600
Z" /> 
<path style="fill:#000000; fill-opacity:1.0000; stroke:none;fill-rule:evenodd;"
d="M 84.8590,69.1940
84.9164,69.2054
84.9651,69.2379
84.9976,69.2866
85.0090,69.3440
85.0090,70.9940
84.9976,71.0514
84.9651,71.1001
84.9164,71.1326
84.8590,71.1440
84.5590,71.1440
84.5016,71.1326
84.4529,71.1001
84.4204,71.0514
84.4090,70.9940
84.4090,69.3440
84.4204,69.2866
84.4529,69.2379
84.5016,69.2054
84.5590,69.1940
Z" /> 
<path style="fill:#000000; fill-opacity:1.0000; stroke:none;fill-rule:evenodd;"
d="M 83.5890,69.1940
83.6464,69.2054
83.6951,69.2379
83.7276,69.2866
83.7390,69.3440
83.7390,70.9940
83.7276,71.0514
83.6951,71.1001
83.6464,71.1326
83.5890,71.1440
83.2890,71.1440
83.2316,71.1326
83.1829,71.1001
83.1504,71.0514
83.1390,70.9940
83.1390,69.3440
83.1504,69.2866
83.1829,69.2379
83.2316,69.2054
83.2890,69.1940
Z" /> 
<path style="fill:#000000; fill-opacity:1.0000; stroke:none;fill-rule:evenodd;"
d="M 82.3190,69.1940
82.3764,69.2054
82.4251,69.2379
82.4576,69.2866
82.4690,69.3440
82.4690,70.9940
82.4576,71.0514
82.4251,71.1001
82.3764,71.1326
82.3190,71.1440
82.0190,71.1440
81.9616,71.1326
81.9129,71.1001
81.8804,71.0514
81.8690,70.9940
81.8690,69.3440
81.8804,69.2866
81.9129,69.2379
81.9616,69.2054
82.0190,69.1940
Z" /> 
<path style="fill:#000000; fill-opacity:1.0000; stroke:none;fill-rule:evenodd;"
d="M 81.0490,69.1940
81.1064,69.2054
81.1551,69.2379
81.1876,69.2866
81.1990,69.3440
81.1990,70.9940
81.1876,71.0514
81.1551,71.1001
81.1064,71.1326
81.0490,71.1440
80.7490,71.1440
80.6916,71.1326
80.6429,71.1001
80.6104,71.0514
80.5990,70.9940
80.5990,69.3440
80.6104,69.2866
80.6429,69.2379
80.6916,69.2054
80.7490,69.1940
Z" /> 
<path style="fill:#000000; fill-opacity:1.0000; stroke:none;fill-rule:evenodd;"
d="M 81.0490,74.1440
81.1064,74.1554
81.1551,74.1879
81.1876,74.2366
81.1990,74.2940
81.1990,75.9440
81.1876,76.0014
81.1551,76.0501
81.1064,76.0826
81.0490,76.0940
80.7490,76.0940
80.6916,76.0826
80.6429,76.0501
80.6104,76.0014
80.5990,75.9440
80.5990,74.2940
80.6104,74.2366
80.6429,74.1879
80.6916,74.1554
80.7490,74.1440
Z" /> 
<path style="fill:#000000; fill-opacity:1.0000; stroke:none;fill-rule:evenodd;"
d="M 82.3190,74.1440
82.3764,74.1554
82.4251,74.1879
82.4576,74.2366
82.4690,74.2940
82.4690,75.9440
82.4576,76.0014
82.4251,76.0501
82.3764,76.0826
82.3190,76.0940
82.0190,76.0940
81.9616,76.0826
81.9129,76.0501
81.8804,76.0014
81.8690,75.9440
81.8690,74.2940
81.8804,74.2366
81.9129,74.1879
81.9616,74.1554
82.0190,74.1440
Z" /> 
<path style="fill:#000000; fill-opacity:1.0000; stroke:none;fill-rule:evenodd;"
d="M 83.5890,74.1440
83.6464,74.1554
83.6951,74.1879
83.7276,74.2366
83.7390,74.2940
83.7390,75.9440
83.7276,76.0014
83.6951,76.0501
83.6464,76.0826
83.5890,76.0940
83.2890,76.0940
83.2316,76.0826
83.1829,76.0501
83.1504,76.0014
83.1390,75.9440
83.1390,74.2940
83.1504,74.2366
83.1829,74.1879
83.2316,74.1554
83.2890,74.1440
Z" /> 
<path style="fill:#000000; fill-opacity:1.0000; stroke:none;fill-rule:evenodd;"
d="M 84.8590,74.1440
84.9164,74.1554
84.9651,74.1879
84.9976,74.2366
85.0090,74.2940
85.0090,75.9440
84.9976,76.0014
84.9651,76.0501
84.9164,76.0826
84.8590,76.0940
84.5590,76.0940
84.5016,76.0826
84.4529,76.0501
84.4204,76.0014
84.4090,75.9440
84.4090,74.2940
84.4204,74.2366
84.4529,74.1879
84.5016,74.1554
84.5590,74.1440
Z" /> 
</g>
<g style="fill:none; 
stroke:#000000; stroke-width:0.0500; stroke-opacity:1; 
stroke-linecap:round; stroke-linejoin:round;">
<path d="M72.3900 46.9900 A1.9050 1.9050 0.0 0 0 70.4850 48.8950" />
<path d="M72.3900 85.7250
L115.5700 85.7250
" />
<path d="M70.4850 48.8950
L70.4850 83.8200
" />
<path d="M70.4850 83.8200 A1.9050 1.9050 0.0 0 0 72.3900 85.7250" />
<path d="M115.5700 85.7250 A1.9050 1.9050 0.0 0 0 117.4750 83.8200" />
<path d="M115.5700 46.9900
L72.3900 46.9900
" />
<path d="M117.4750 83.8200
L117.4750 48.8950
" />
<path d="M117.4750 48.8950 A1.9050 1.9050 0.0 0 0 115.5700 46.9900" />
</g> 
</svg>
